<svg xmlns="http://www.w3.org/2000/svg" aria-hidden="true" style="position:absolute;width:0;height:0;overflow:hidden"><defs><symbol id="icon-blue" viewBox="0 0 32 32"><path fill="#d6b1ff" d="M28 32H16a1.334 1.334 0 0 1-1.334-1.334v-2.667A1.334 1.334 0 0 1 16 26.665h12a1.334 1.334 0 0 1 1.334 1.334v2.667A1.334 1.334 0 0 1 28 32z" style="fill:var(--color1, #d6b1ff)"/><path fill="#11b5e4" d="M28 0H4a1.335 1.335 0 0 0-1.334 1.334v2.667A1.335 1.335 0 0 0 4 5.335h24a1.335 1.335 0 0 0 1.334-1.334V1.334A1.334 1.334 0 0 0 28 0zM28 8H4a1.335 1.335 0 0 0-1.334 1.334v13.333A1.335 1.335 0 0 0 4 24.001h24a1.334 1.334 0 0 0 1.334-1.334V9.334A1.334 1.334 0 0 0 28 8z" style="fill:var(--color2, #11b5e4)"/></symbol><symbol id="icon-cursor" viewBox="0 0 32 32"><path d="M24.689 18.067 7.479.857a1.003 1.003 0 0 0-.756-.319c-.134 0-.286.034-.403.084a1.079 1.079 0 0 0-.672.992v25.277c0 .437.269.824.672.992.118.05.269.084.403.084.286 0 .555-.118.756-.319l5.244-5.244 3.21 7.597a1.08 1.08 0 0 0 1.412.571l2.975-1.261a1.08 1.08 0 0 0 .571-1.412l-3.378-8h6.42c.437 0 .824-.269.992-.672a1.038 1.038 0 0 0-.235-1.16z"/></symbol><symbol id="icon-facebook" viewBox="0 0 32 32"><path stroke-linecap="round" stroke-linejoin="round" stroke-width="2.667" d="M24 2.667h-4a6.67 6.67 0 0 0-6.667 6.667v4h-4v5.333h4v10.667h5.333V18.667h4l1.333-5.333h-5.333v-4A1.334 1.334 0 0 1 20 8h4V2.667z"/></symbol><symbol id="icon-green" viewBox="0 0 32 32"><path fill="#d6b1ff" d="M24 13.333h8L28 8l-4 5.333zm0 5.334h8L28 24l-4-5.333z" style="fill:var(--color1, #d6b1ff)"/><path fill="#02897a" d="M1.333 0h8v32h-8a1.334 1.334 0 0 1-1.334-1.334V1.333A1.335 1.335 0 0 1 1.333-.001zM12 0h8a1.335 1.335 0 0 1 1.334 1.334v29.333A1.334 1.334 0 0 1 20 32.001h-8v-32z" style="fill:var(--color3, #02897a)"/></symbol><symbol id="icon-hea" viewBox="0 0 32 32"><path d="M16 29.286c.286 0 .571-.107.786-.322L27.911 18.25C28.072 18.089 32 14.5 32 10.214c0-5.232-3.196-8.357-8.536-8.357-3.125 0-6.053 2.464-7.464 3.857-1.411-1.393-4.339-3.857-7.464-3.857C3.197 1.857 0 4.982 0 10.214c0 4.286 3.929 7.875 4.071 8l11.143 10.75c.214.214.5.322.786.322z"/></symbol><symbol id="icon-instagram" viewBox="0 0 32 32"><path stroke-linecap="round" stroke-linejoin="round" stroke-width="2.667" d="M22.667 2.667H9.334a6.667 6.667 0 0 0-6.667 6.667v13.333a6.667 6.667 0 0 0 6.667 6.667h13.333a6.667 6.667 0 0 0 6.667-6.667V9.334a6.667 6.667 0 0 0-6.667-6.667z"/><path stroke-linecap="round" stroke-linejoin="round" stroke-width="2.667" d="M21.333 15.16a5.338 5.338 0 0 1-6.123 6.049 5.334 5.334 0 1 1 6.124-6.048zM23.333 8.667h.013"/></symbol><symbol id="icon-minus" viewBox="0 0 32 32"><path stroke-width="1.231" d="M1.231 16C1.231 7.847 7.848 1.231 16 1.231S30.769 7.848 30.769 16c0 8.153-6.617 14.769-14.769 14.769S1.231 24.152 1.231 16zm7.384 1.477h14.769v-2.954H8.615v2.954z"/></symbol><symbol id="icon-offer-first" viewBox="0 0 32 32"><path d="M17.732 4.201 8.541 7.03c-3.349 1.031-4.778 3.627-3.949 7.178l2.271 9.735c.828 3.551 3.195 4.979 6.545 3.948l9.191-2.829c3.349-1.031 4.769-3.624 3.94-7.175l-2.271-9.735c-.828-3.551-3.186-4.982-6.536-3.951z" style="fill:var(--color4, #000)"/><path fill="#e31313" d="m17.074 8.555-6.071 1.869c-2.212.681-3.171 2.332-2.65 4.564l1.428 6.12c.521 2.232 2.069 3.111 4.282 2.431l6.071-1.869c2.212-.681 3.165-2.33 2.644-4.562l-1.428-6.12c-.521-2.232-2.063-3.113-4.276-2.432z" opacity=".5" style="fill:var(--color5, #e31313)"/><path fill="#f03e3d" stroke="#000" stroke-linecap="round" stroke-linejoin="round" stroke-width=".471" d="m23.794 9.081.165.002c1.69.041 3.114.716 4.122 1.873 1.038 1.191 1.619 2.876 1.619 4.866V24.8c0 1.985-.582 3.667-1.619 4.857-1.04 1.193-2.524 1.873-4.286 1.873h-8.686c-1.763 0-3.248-.681-4.291-1.873-1.04-1.19-1.625-2.872-1.625-4.857v-8.978c0-1.99.584-3.675 1.625-4.866 1.043-1.194 2.529-1.875 4.291-1.875h8.686z" style="fill:var(--color6, #f03e3d);stroke:var(--color4, #000)"/><path d="M30.528 7.702c-.813 0-1.472.723-1.472 1.615s.659 1.615 1.472 1.615S32 10.209 32 9.317c0-.428-.155-.839-.431-1.142s-.651-.473-1.041-.473zM24.688 18.359l-2.863 4.053c-.12.176-.301.291-.501.318s-.4-.035-.557-.174l-2.749-2.364-2.476 3.512c-.179.312-.528.453-.85.341s-.533-.446-.516-.814a.84.84 0 0 1 .159-.502l2.96-4.188c.119-.175.297-.29.495-.319s.397.03.554.164l2.749 2.374 2.414-3.406c.116-.176.292-.292.488-.323s.395.026.551.159a.883.883 0 0 1 .141 1.148v.019z" style="fill:var(--color4, #000)"/></symbol><symbol id="icon-offer-second" viewBox="0 0 32 32"><path d="M16.507 3.263 7.416 5.862c-3.313.947-4.687 3.486-3.799 7.021l2.433 9.69c.888 3.534 3.268 5 6.58 4.053l9.091-2.599c3.313-.947 4.678-3.484 3.791-7.018l-2.433-9.69c-.888-3.534-3.259-5.003-6.572-4.056z" style="fill:var(--color4, #000)"/><path fill="#11b5e4" d="m20.987 15.961-1.651-6.672c-.599-2.42-2.098-3.505-4.068-2.95l-6.674 1.88c-2.003.564-2.779 2.29-2.18 4.71l1.651 6.672c.608 2.459 2.072 3.512 4.074 2.948l6.674-1.88c1.971-.555 2.782-2.248 2.173-4.708z" opacity=".5" style="fill:var(--color2, #11b5e4)"/><path fill="#00acdd" d="M24.411 7.834H15c-3.429 0-5.373 2.073-5.373 5.732v10.031c0 3.659 1.943 5.732 5.373 5.732h9.411c3.429 0 5.364-2.073 5.364-5.732V13.566c0-3.659-1.934-5.732-5.364-5.732z" style="fill:var(--color7, #00acdd)"/><path d="M24.411 8.278a.444.444 0 0 0 0-.888v.889zm0-.889a.444.444 0 0 0 0 .888v-.889zm0 0H15v.889h9.411v-.889zm-9.411 0c-1.806 0-3.279.548-4.297 1.634-1.014 1.082-1.52 2.638-1.52 4.542h.889c0-1.754.465-3.065 1.28-3.934.811-.865 2.024-1.353 3.648-1.353v-.889zm-5.817 6.177v10.031h.889V13.566h-.889zm0 10.031c0 1.905.506 3.46 1.52 4.542 1.018 1.086 2.491 1.634 4.297 1.634v-.889c-1.624 0-2.837-.488-3.648-1.353-.815-.869-1.28-2.18-1.28-3.934h-.889zM15 29.774h9.411v-.889H15v.889zm9.411 0c1.806 0 3.277-.548 4.293-1.635 1.012-1.082 1.516-2.638 1.516-4.542h-.889c0 1.755-.463 3.066-1.276 3.935-.808.865-2.019 1.353-3.643 1.353v.889zm5.808-6.177V13.566h-.889v10.031h.889zm0-10.031c0-1.904-.504-3.46-1.516-4.542-1.016-1.087-2.487-1.635-4.293-1.635v.889c1.624 0 2.835.488 3.643 1.353.813.869 1.276 2.18 1.276 3.935h.889zM19.736 12.229c-.457 0-.833.401-.833.898v10.91c0 .487.376.889.833.889.466 0 .842-.401.842-.889v-10.91c0-.497-.376-.898-.842-.898zm-4.701 3.525c-.457 0-.833.401-.833.898v7.385c0 .487.376.889.833.889.466 0 .842-.401.842-.889v-7.385c0-.497-.376-.898-.842-.898zm8.498 4.796c0-.497.376-.898.842-.898.457 0 .833.401.833.898v3.487c0 .487-.376.889-.842.889-.457 0-.833-.401-.833-.889V20.55z" style="fill:var(--color4, #000)"/><path d="M19.081 13.127c0-.411.308-.72.655-.72v-.356c-.567 0-1.011.493-1.011 1.076h.356zm0 10.91v-10.91h-.356v10.91h.356zm.655.711c-.348 0-.655-.311-.655-.711h-.356c0 .574.445 1.066 1.011 1.066v-.356zm.664-.711c0 .399-.306.711-.664.711v.356c.573 0 1.019-.491 1.019-1.066h-.356zm0-10.91v10.91h.356v-10.91H20.4zm-.664-.721c.357 0 .664.311.664.72h.356c0-.584-.445-1.076-1.019-1.076v.356zm-5.356 4.246c0-.411.308-.72.655-.72v-.356c-.567 0-1.011.493-1.011 1.076h.356zm0 7.385v-7.385h-.356v7.385h.356zm.655.711c-.348 0-.655-.311-.655-.711h-.356c0 .574.445 1.066 1.011 1.066v-.356zm.664-.711c0 .399-.306.711-.664.711v.356c.573 0 1.019-.491 1.019-1.066h-.356zm0-7.385v7.385h.356v-7.385h-.356zm-.664-.72c.357 0 .664.311.664.72h.356c0-.584-.445-1.076-1.019-1.076v.356zm9.34 3.542c-.575 0-1.02.492-1.02 1.076h.356c0-.41.307-.72.664-.72v-.356zm1.01 1.076c0-.583-.444-1.076-1.011-1.076v.356c.347 0 .655.309.655.72h.356zm0 3.487V20.55h-.356v3.487h.356zm-1.019 1.067c.573 0 1.02-.491 1.02-1.066h-.356c0 .399-.306.711-.664.711v.356zm-1.011-1.067c0 .574.445 1.066 1.011 1.066v-.356c-.348 0-.655-.311-.655-.711h-.356zm0-3.487v3.487h.356V20.55h-.356z" style="fill:var(--color4, #000)"/></symbol><symbol id="icon-phone" viewBox="0 0 32 32"><path d="M23.758 0H8.243C6.637 0 5.334 1.344 5.334 3v26c0 1.656 1.303 3 2.909 3h15.515c1.606 0 2.909-1.344 2.909-3V3c0-1.656-1.303-3-2.909-3zm-4.849 27.944c0 .606-.436 1.056-.97 1.056h-3.933c-.479 0-.915-.45-.915-1s.436-1 .97-1h3.879c.533 0 .97.45.97.944zM22.788 24H9.212V4h13.576v20z"/></symbol><symbol id="icon-plus" viewBox="0 0 32 32"><path d="M0 16C0 7.168 7.168 0 16 0s16 7.168 16 16-7.168 16-16 16S0 24.832 0 16zm17.6 1.6H24v-3.2h-6.4V8h-3.2v6.4H8v3.2h6.4V24h3.2v-6.4z"/></symbol><symbol id="icon-red" viewBox="0 0 32 32"><path fill="#d6b1ff" d="M6.667 1.333h-4a1.335 1.335 0 0 0-1.334 1.334v26.667a1.335 1.335 0 0 0 1.334 1.334h4V1.335z" style="fill:var(--color1, #d6b1ff)"/><path fill="#f03e3d" d="M9.333 30.667h13.333V1.334H9.333v29.333zM16 25.333a1.334 1.334 0 1 1 0-2.667 1.334 1.334 0 0 1 0 2.667zm0-18.666a1.335 1.335 0 0 1 .943 2.277A1.334 1.334 0 1 1 16 6.667zm0 8a1.334 1.334 0 1 1 0 2.667 1.334 1.334 0 0 1 0-2.667zM29.333 1.333h-4v29.333h4a1.334 1.334 0 0 0 1.334-1.334V2.665a1.334 1.334 0 0 0-1.334-1.334z" style="fill:var(--color6, #f03e3d)"/></symbol><symbol id="icon-tick" viewBox="0 0 32 32"><path d="M29.767 5.156a1.487 1.487 0 0 0-2.133 0L9.559 23.581l-6.948-7.082c-.589-.601-1.544-.601-2.134 0s-.589 1.574 0 2.175l8.014 8.17c.589.6 1.545.6 2.134 0L29.767 7.331a1.56 1.56 0 0 0 0-2.175z"/></symbol><symbol id="icon-time" viewBox="0 0 32 32"><path d="M26.487 2.689h1.614a.531.531 0 0 0 .538-.538V1.075a.53.53 0 0 0-.538-.538H3.361a.53.53 0 0 0-.538.538v1.076a.53.53 0 0 0 .538.538h1.613c0 6.219 2.975 10.723 6.269 12.908-3.294 2.185-6.269 6.689-6.269 12.908H3.361a.53.53 0 0 0-.538.538v1.076c0 .302.235.538.538.538h24.74a.531.531 0 0 0 .538-.538v-1.076a.531.531 0 0 0-.538-.538h-1.614c0-6.219-2.975-10.723-6.269-12.908 3.294-2.185 6.269-6.689 6.269-12.908zm-2.151 0c0 2.454-.555 4.622-1.429 6.454H8.554c-.874-1.832-1.429-4-1.429-6.454h17.21zm-.958 20.437H8.084c1.244-3.244 3.479-5.546 5.714-6.454h3.866c2.235.908 4.471 3.21 5.714 6.454z"/></symbol><symbol id="icon-triangle" viewBox="0 0 32 32"><path d="M27.866 12.891c2.441 1.354 2.441 4.864 0 6.218L6.711 30.848c-2.37 1.315-5.281-.399-5.281-3.109V4.262c0-2.71 2.911-4.424 5.281-3.109l21.155 11.739z"/></symbol><symbol id="icon-twitter" viewBox="0 0 32 32"><path stroke-linecap="round" stroke-linejoin="round" stroke-width="2.667" d="M30.667 4.013a14.542 14.542 0 0 1-4.187 2.04 5.975 5.975 0 0 0-6.637-1.661A5.979 5.979 0 0 0 16 10.053v1.333a14.211 14.211 0 0 1-12-6.04s-5.333 12 6.667 17.333a15.519 15.519 0 0 1-9.333 2.667c12 6.667 26.667 0 26.667-15.333a5.966 5.966 0 0 0-.107-1.107 10.288 10.288 0 0 0 2.773-4.893z"/></symbol><symbol id="icon-wave" viewBox="0 0 32 32"><path d="m16.857 13.587 2.079.968 3.095-.921v-2.159c0-3.667-3.095-6.603-6.794-6.603-3.683 0-6.794 2.921-6.794 6.556v9.841c0 .905-.73 1.619-1.619 1.619s-1.619-.714-1.619-1.619V17.11H-.001v4.222a6.809 6.809 0 0 0 6.81 6.81c3.73 0 6.809-3 6.809-6.714v-9.714c0-.889.73-1.619 1.619-1.619s1.619.73 1.619 1.619v1.873zm8.413 3.524v4.365c0 .889-.73 1.603-1.619 1.603s-1.619-.714-1.619-1.603V17.19l-3.095.921-2.079-.968v4.254c0 3.73 3.064 6.746 6.81 6.746a6.809 6.809 0 0 0 6.81-6.81v-4.222h-5.206z"/></symbol></defs></svg>